<svg width="194" height="49" viewBox="0 0 194 49" fill="none" xmlns="http://www.w3.org/2000/svg">
<path d="M51.1719 12.2257C51.8826 10.8619 52.845 9.80609 54.0665 9.07286C55.288 8.33963 56.6502 7.97301 58.1604 7.97301C59.4781 7.97301 60.6256 8.23697 61.6176 8.7649C62.6096 9.29282 63.3943 9.95273 63.9866 10.752V8.25897H68.4728V25.7245H63.9866V23.1729C63.4165 23.9941 62.6244 24.6686 61.6176 25.2039C60.6108 25.7392 59.4485 26.0105 58.1308 26.0105C56.6428 26.0105 55.2954 25.6292 54.0739 24.874C52.8524 24.1187 51.89 23.0482 51.1793 21.6771C50.4686 20.2986 50.1133 18.7148 50.1133 16.9331C50.1133 15.1513 50.4686 13.6042 51.1793 12.2331L51.1719 12.2257ZM63.3499 14.2275C62.9279 13.4576 62.3505 12.871 61.6324 12.4604C60.9143 12.0498 60.137 11.8445 59.3078 11.8445C58.4787 11.8445 57.7162 12.0424 57.0129 12.4457C56.3096 12.8417 55.747 13.4282 55.3102 14.1981C54.8734 14.968 54.6587 15.8772 54.6587 16.9257C54.6587 17.9743 54.8734 18.8981 55.3102 19.6827C55.747 20.4746 56.317 21.0758 57.0277 21.4938C57.7384 21.9117 58.4935 22.1243 59.3004 22.1243C60.1074 22.1243 60.8995 21.919 61.625 21.5084C62.3431 21.0978 62.9205 20.5112 63.3425 19.7413C63.7645 18.9715 63.9792 18.0549 63.9792 16.9844C63.9792 15.9139 63.7645 14.99 63.3425 14.2275H63.3499ZM77.3638 11.8738V20.3206C77.3638 20.9072 77.5045 21.3325 77.7932 21.5964C78.0819 21.8604 78.5631 21.9924 79.2442 21.9924H81.3097V25.7098H78.5113C74.758 25.7098 72.8776 23.9061 72.8776 20.2839V11.8665H70.7751V8.23697H72.8776V3.93292H77.3638V8.25164H81.3097V11.8811H77.3638V11.8738ZM89.2827 11.8738V20.3206C89.2827 20.9072 89.4234 21.3325 89.7121 21.5964C90.0008 21.8604 90.482 21.9924 91.1631 21.9924H93.2285V25.7098H90.4302C86.6769 25.7098 84.7965 23.9061 84.7965 20.2839V11.8665H82.694V8.23697H84.7965V3.93292H89.2827V8.25164H93.2285V11.8811H89.2827V11.8738ZM111.877 18.3115H98.9807C99.0843 19.5727 99.5359 20.5626 100.321 21.2738C101.105 21.9924 102.068 22.3443 103.215 22.3443C104.874 22.3443 106.051 21.6404 106.746 20.2326H111.551C111.04 21.9117 110.063 23.2975 108.619 24.3827C107.176 25.4679 105.407 26.0031 103.304 26.0031C101.609 26.0031 100.084 25.6292 98.7364 24.8813C97.389 24.1334 96.3378 23.0775 95.5827 21.7137C94.8276 20.3499 94.45 18.7735 94.45 16.9844C94.45 15.1953 94.8202 13.5895 95.5605 12.2257C96.3008 10.8619 97.3446 9.80609 98.6772 9.07286C100.017 8.33963 101.55 7.97301 103.289 7.97301C105.029 7.97301 106.465 8.33229 107.79 9.04353C109.115 9.75476 110.144 10.7739 110.877 12.0864C111.61 13.3989 111.973 14.9094 111.973 16.6105C111.973 17.241 111.929 17.8056 111.847 18.3115H111.877ZM107.391 15.342C107.368 14.2055 106.954 13.2963 106.147 12.6144C105.34 11.9325 104.355 11.5878 103.186 11.5878C102.083 11.5878 101.15 11.9178 100.402 12.5777C99.647 13.2376 99.188 14.1615 99.0177 15.3346H107.391V15.342ZM129.511 9.96739C130.806 11.2799 131.45 13.1129 131.45 15.4666V25.7098H126.994V16.0605C126.994 14.6747 126.646 13.6042 125.943 12.8637C125.239 12.1158 124.284 11.7418 123.078 11.7418C121.871 11.7418 120.879 12.1158 120.168 12.8637C119.457 13.6115 119.102 14.6747 119.102 16.0605V25.7098H114.646V8.25164H119.102V10.4293C119.694 9.6741 120.457 9.08019 121.375 8.64758C122.293 8.21498 123.314 8.00234 124.418 8.00234C126.52 8.00234 128.215 8.66225 129.511 9.97473V9.96739ZM139.905 11.8738V20.3206C139.905 20.9072 140.045 21.3325 140.334 21.5964C140.623 21.8604 141.104 21.9924 141.785 21.9924H143.85V25.7098H141.052C137.299 25.7098 135.418 23.9061 135.418 20.2839V11.8665H133.316V8.23697H135.418V3.93292H139.905V8.25164H143.85V11.8811H139.905V11.8738ZM146.767 5.42871C146.249 4.93744 145.99 4.32153 145.99 3.5883C145.99 2.85507 146.249 2.23916 146.767 1.74056C147.285 1.2493 147.937 1 148.722 1C149.506 1 150.158 1.2493 150.676 1.74056C151.194 2.23183 151.453 2.84774 151.453 3.5883C151.453 4.32886 151.194 4.93744 150.676 5.42871C150.158 5.91997 149.506 6.16927 148.722 6.16927C147.937 6.16927 147.285 5.91997 146.767 5.42871ZM150.92 8.25164V25.7172H146.464V8.25164H150.92ZM157.82 24.8813C156.465 24.1334 155.392 23.0775 154.622 21.7137C153.845 20.3499 153.46 18.7735 153.46 16.9844C153.46 15.1953 153.859 13.6189 154.652 12.2551C155.444 10.8913 156.532 9.83541 157.916 9.08752C159.293 8.33963 160.833 7.96568 162.528 7.96568C164.224 7.96568 165.763 8.33963 167.148 9.08752C168.525 9.83541 169.613 10.8913 170.413 12.2551C171.212 13.6189 171.604 15.1953 171.604 16.9844C171.604 18.7735 171.197 20.3499 170.376 21.7137C169.561 23.0775 168.458 24.1334 167.066 24.8813C165.675 25.6292 164.12 26.0031 162.402 26.0031C160.685 26.0031 159.175 25.6292 157.82 24.8813ZM164.675 21.5744C165.386 21.1858 165.956 20.5992 166.378 19.822C166.8 19.0448 167.015 18.0989 167.015 16.9844C167.015 15.3273 166.57 14.0442 165.697 13.1569C164.816 12.2624 163.742 11.8151 162.469 11.8151C161.196 11.8151 160.13 12.2624 159.271 13.1569C158.412 14.0515 157.983 15.3273 157.983 16.9844C157.983 18.6415 158.405 19.9247 159.241 20.8119C160.078 21.7064 161.137 22.1537 162.41 22.1537C163.217 22.1537 163.972 21.963 164.683 21.5744H164.675ZM189.061 9.96739C190.356 11.2799 191 13.1129 191 15.4666V25.7098H186.544V16.0605C186.544 14.6747 186.196 13.6042 185.493 12.8637C184.789 12.1158 183.834 11.7418 182.628 11.7418C181.421 11.7418 180.429 12.1158 179.718 12.8637C179.007 13.6115 178.652 14.6747 178.652 16.0605V25.7098H174.196V8.25164H178.652V10.4293C179.244 9.6741 180.007 9.08019 180.925 8.64758C181.843 8.21498 182.864 8.00234 183.967 8.00234C186.07 8.00234 187.765 8.66225 189.061 9.97473V9.96739ZM51.1719 34.2226C51.8826 32.8588 52.845 31.803 54.0665 31.0697C55.288 30.3365 56.6502 29.9699 58.1604 29.9699C59.4781 29.9699 60.6256 30.2339 61.6176 30.7618C62.6096 31.2897 63.3943 31.9496 63.9866 32.7488V30.2559H68.4728V47.7214H63.9866V45.1697C63.4165 45.991 62.6244 46.6655 61.6176 47.2008C60.6108 47.736 59.4485 48.0073 58.1308 48.0073C56.6428 48.0073 55.2954 47.6261 54.0739 46.8708C52.8524 46.1156 51.89 45.0451 51.1793 43.674C50.4686 42.2955 50.1133 40.7117 50.1133 38.93C50.1133 37.1482 50.4686 35.6011 51.1793 34.23L51.1719 34.2226ZM63.3499 36.2243C62.9279 35.4544 62.3505 34.8679 61.6324 34.4573C60.9143 34.0466 60.137 33.8413 59.3078 33.8413C58.4787 33.8413 57.7162 34.0393 57.0129 34.4426C56.3096 34.8385 55.747 35.4251 55.3102 36.195C54.8734 36.9649 54.6587 37.8741 54.6587 38.9226C54.6587 39.9711 54.8734 40.895 55.3102 41.6796C55.747 42.4715 56.317 43.0727 57.0277 43.4906C57.7384 43.9086 58.4935 44.1212 59.3004 44.1212C60.1074 44.1212 60.8995 43.9159 61.625 43.5053C62.3431 43.0947 62.9205 42.5081 63.3425 41.7382C63.7645 40.9683 63.9792 40.0518 63.9792 38.9813C63.9792 37.9108 63.7645 36.9869 63.3425 36.2243H63.3499ZM78.8074 30.7838C79.7328 30.2559 80.784 29.9919 81.9759 29.9919V34.6259H80.7988C79.3997 34.6259 78.341 34.9485 77.6304 35.6011C76.9197 36.2537 76.5643 37.3902 76.5643 39.0033V47.7067H72.1077V30.2412H76.5643V32.9541C77.1344 32.0303 77.8821 31.3044 78.8074 30.7764V30.7838ZM84.1154 34.2373C84.8557 32.8808 85.8847 31.8323 87.2025 31.0844C88.5202 30.3365 90.023 29.9626 91.7257 29.9626C93.9096 29.9626 95.7234 30.5051 97.1521 31.583C98.5809 32.6682 99.5433 34.186 100.032 36.1364H95.2274C94.9757 35.3811 94.5463 34.7872 93.9392 34.3546C93.3322 33.922 92.5845 33.7094 91.6961 33.7094C90.4228 33.7094 89.416 34.164 88.6757 35.0805C87.9354 35.997 87.5578 37.2949 87.5578 38.9739C87.5578 40.653 87.928 41.9215 88.6757 42.8381C89.416 43.7546 90.4228 44.2092 91.6961 44.2092C93.5025 44.2092 94.6795 43.41 95.2274 41.8115H100.032C99.5433 43.7033 98.5809 45.2064 97.1373 46.3209C95.6938 47.4354 93.8874 47.9927 91.7257 47.9927C90.0304 47.9927 88.5202 47.6187 87.2025 46.8708C85.8847 46.1229 84.8557 45.0744 84.1154 43.7179C83.3751 42.3615 83.005 40.7777 83.005 38.9739C83.005 37.1702 83.3751 35.5864 84.1154 34.23V34.2373Z" fill="black"/>
<path d="M25.6015 21.2884L15.9183 34.4939H10.9509L3 45.3237V8.25159H40.141L30.5689 21.2884H25.6015Z" fill="black"/>
<path d="M30.5677 21.2884L20.8846 34.4939H15.9171L6.22656 47.6993H42.8272V11.3605L35.5352 21.2884H30.5677Z" fill="black"/>
</svg>
